# xmcd
#
# Track frame offsets: 
#        150
#        13325
#        24922
#        37120
#        52820
#        66775
#        79497
#        92257
#        105247
#        117515
#        129737
#        145502
#
# Disc length: 2112 seconds
#
# Revision: 0
# Processed by: cddbd v1.4b42PL1 Copyright (c) Steve Scherf et al.
# Submitted via: ExactAudioCopy v0.90a11
#
DISCID=96083e0c
DTITLE=Jelly Roll Morton - Jelly Roll Stomp
DYEAR=1900
DGENRE=
TTITLE0=Kansas City Stomp
TTITLE1=King Porter Stomp
TTITLE2=New Orleans Joys
TTITLE3=Wolverine Blues
TTITLE4=Jelly Roll Blues
TTITLE5=Shreveport Stomps
TTITLE6=Stratford Hunch
TTITLE7=Big Fat Ham
TTITLE8=Perfect Rag
TTITLE9=Grandpa's Spells
TTITLE10=Sweet Man
TTITLE11=Tin Roof Blues
EXTD=
EXTT0=
EXTT1=
EXTT2=
EXTT3=
EXTT4=
EXTT5=
EXTT6=
EXTT7=
EXTT8=
EXTT9=
EXTT10=
EXTT11=
PLAYORDER=
